<mxfile host="app.diagrams.net" modified="2023-11-03T00:33:30.710Z" agent="Mozilla/5.0 (Windows NT 10.0; Win64; x64) AppleWebKit/537.36 (KHTML, like Gecko) Chrome/118.0.0.0 Safari/537.36" etag="Fhi_7Dd04IYOfdJw8qHZ" version="21.3.5" type="onedrive">
  <diagram name="Page-1" id="OwPAA10f4SxbWvF_kwXg">
    <mxGraphModel grid="0" page="0" gridSize="10" guides="1" tooltips="1" connect="1" arrows="1" fold="1" pageScale="1" pageWidth="827" pageHeight="1169" math="0" shadow="0">
      <root>
        <mxCell id="0" />
        <mxCell id="1" parent="0" />
        <mxCell id="yrKPJrua5AQL0j4_LsnH-4" style="edgeStyle=orthogonalEdgeStyle;rounded=0;orthogonalLoop=1;jettySize=auto;html=1;entryX=0.5;entryY=0;entryDx=0;entryDy=0;endArrow=none;endFill=0;exitX=0.5;exitY=1;exitDx=0;exitDy=0;" edge="1" parent="1" source="yrKPJrua5AQL0j4_LsnH-6" target="yrKPJrua5AQL0j4_LsnH-7">
          <mxGeometry relative="1" as="geometry">
            <mxPoint x="414" y="270" as="sourcePoint" />
            <mxPoint x="60" y="300" as="targetPoint" />
            <Array as="points">
              <mxPoint x="440" y="290" />
              <mxPoint x="-120" y="290" />
            </Array>
          </mxGeometry>
        </mxCell>
        <mxCell id="yrKPJrua5AQL0j4_LsnH-5" style="edgeStyle=orthogonalEdgeStyle;rounded=0;orthogonalLoop=1;jettySize=auto;html=1;entryX=0.5;entryY=0;entryDx=0;entryDy=0;endArrow=none;endFill=0;exitX=0.5;exitY=1;exitDx=0;exitDy=0;" edge="1" parent="1" source="yrKPJrua5AQL0j4_LsnH-6" target="yrKPJrua5AQL0j4_LsnH-8">
          <mxGeometry relative="1" as="geometry">
            <mxPoint x="414" y="270" as="sourcePoint" />
            <mxPoint x="767" y="300" as="targetPoint" />
            <Array as="points">
              <mxPoint x="440" y="290" />
              <mxPoint x="981" y="290" />
            </Array>
          </mxGeometry>
        </mxCell>
        <mxCell id="yrKPJrua5AQL0j4_LsnH-11" style="edgeStyle=orthogonalEdgeStyle;rounded=0;orthogonalLoop=1;jettySize=auto;html=1;entryX=0.5;entryY=0;entryDx=0;entryDy=0;endArrow=none;endFill=0;exitX=0.5;exitY=1;exitDx=0;exitDy=0;" edge="1" parent="1" source="yrKPJrua5AQL0j4_LsnH-6" target="yrKPJrua5AQL0j4_LsnH-9">
          <mxGeometry relative="1" as="geometry" />
        </mxCell>
        <mxCell id="yrKPJrua5AQL0j4_LsnH-12" style="edgeStyle=orthogonalEdgeStyle;rounded=0;orthogonalLoop=1;jettySize=auto;html=1;entryX=0.5;entryY=0;entryDx=0;entryDy=0;endArrow=none;endFill=0;exitX=0.5;exitY=1;exitDx=0;exitDy=0;" edge="1" parent="1" source="yrKPJrua5AQL0j4_LsnH-6" target="yrKPJrua5AQL0j4_LsnH-10">
          <mxGeometry relative="1" as="geometry">
            <Array as="points">
              <mxPoint x="440" y="290" />
              <mxPoint x="655" y="290" />
            </Array>
          </mxGeometry>
        </mxCell>
        <mxCell id="yrKPJrua5AQL0j4_LsnH-6" value="Timetable management system" style="rounded=1;whiteSpace=wrap;html=1;" vertex="1" parent="1">
          <mxGeometry x="380" y="210" width="120" height="60" as="geometry" />
        </mxCell>
        <mxCell id="yrKPJrua5AQL0j4_LsnH-17" style="edgeStyle=orthogonalEdgeStyle;rounded=0;orthogonalLoop=1;jettySize=auto;html=1;entryX=0.5;entryY=0;entryDx=0;entryDy=0;endArrow=none;endFill=0;exitX=0.5;exitY=1;exitDx=0;exitDy=0;" edge="1" parent="1" source="yrKPJrua5AQL0j4_LsnH-7" target="yrKPJrua5AQL0j4_LsnH-13">
          <mxGeometry relative="1" as="geometry">
            <Array as="points">
              <mxPoint x="-120" y="390" />
              <mxPoint x="-320" y="390" />
            </Array>
          </mxGeometry>
        </mxCell>
        <mxCell id="yrKPJrua5AQL0j4_LsnH-18" style="edgeStyle=orthogonalEdgeStyle;rounded=0;orthogonalLoop=1;jettySize=auto;html=1;entryX=0.5;entryY=0;entryDx=0;entryDy=0;endArrow=none;endFill=0;" edge="1" parent="1" source="yrKPJrua5AQL0j4_LsnH-7" target="yrKPJrua5AQL0j4_LsnH-14">
          <mxGeometry relative="1" as="geometry" />
        </mxCell>
        <mxCell id="yrKPJrua5AQL0j4_LsnH-19" style="edgeStyle=orthogonalEdgeStyle;rounded=0;orthogonalLoop=1;jettySize=auto;html=1;entryX=0.5;entryY=0;entryDx=0;entryDy=0;endArrow=none;endFill=0;" edge="1" parent="1" source="yrKPJrua5AQL0j4_LsnH-7" target="yrKPJrua5AQL0j4_LsnH-15">
          <mxGeometry relative="1" as="geometry" />
        </mxCell>
        <mxCell id="yrKPJrua5AQL0j4_LsnH-20" style="edgeStyle=orthogonalEdgeStyle;rounded=0;orthogonalLoop=1;jettySize=auto;html=1;entryX=0.5;entryY=0;entryDx=0;entryDy=0;endArrow=none;endFill=0;exitX=0.5;exitY=1;exitDx=0;exitDy=0;" edge="1" parent="1" source="yrKPJrua5AQL0j4_LsnH-7" target="yrKPJrua5AQL0j4_LsnH-16">
          <mxGeometry relative="1" as="geometry">
            <Array as="points">
              <mxPoint x="-120" y="390" />
              <mxPoint x="70" y="390" />
            </Array>
          </mxGeometry>
        </mxCell>
        <mxCell id="yrKPJrua5AQL0j4_LsnH-7" value="Timetable generator" style="rounded=1;whiteSpace=wrap;html=1;" vertex="1" parent="1">
          <mxGeometry x="-180" y="310" width="120" height="60" as="geometry" />
        </mxCell>
        <mxCell id="yrKPJrua5AQL0j4_LsnH-35" style="edgeStyle=orthogonalEdgeStyle;rounded=0;orthogonalLoop=1;jettySize=auto;html=1;entryX=0.5;entryY=0;entryDx=0;entryDy=0;endArrow=none;endFill=0;" edge="1" parent="1" source="yrKPJrua5AQL0j4_LsnH-8" target="yrKPJrua5AQL0j4_LsnH-32">
          <mxGeometry relative="1" as="geometry">
            <Array as="points">
              <mxPoint x="981" y="390" />
              <mxPoint x="851" y="390" />
            </Array>
          </mxGeometry>
        </mxCell>
        <mxCell id="yrKPJrua5AQL0j4_LsnH-36" style="edgeStyle=orthogonalEdgeStyle;rounded=0;orthogonalLoop=1;jettySize=auto;html=1;entryX=0.5;entryY=0;entryDx=0;entryDy=0;endArrow=none;endFill=0;" edge="1" parent="1" source="yrKPJrua5AQL0j4_LsnH-8" target="yrKPJrua5AQL0j4_LsnH-33">
          <mxGeometry relative="1" as="geometry" />
        </mxCell>
        <mxCell id="yrKPJrua5AQL0j4_LsnH-37" style="edgeStyle=orthogonalEdgeStyle;rounded=0;orthogonalLoop=1;jettySize=auto;html=1;endArrow=none;endFill=0;" edge="1" parent="1" source="yrKPJrua5AQL0j4_LsnH-8" target="yrKPJrua5AQL0j4_LsnH-34">
          <mxGeometry relative="1" as="geometry">
            <Array as="points">
              <mxPoint x="981" y="390" />
              <mxPoint x="1111" y="390" />
            </Array>
          </mxGeometry>
        </mxCell>
        <mxCell id="yrKPJrua5AQL0j4_LsnH-8" value="Timetable viewer" style="rounded=1;whiteSpace=wrap;html=1;" vertex="1" parent="1">
          <mxGeometry x="920.5" y="310" width="120" height="60" as="geometry" />
        </mxCell>
        <mxCell id="yrKPJrua5AQL0j4_LsnH-38" style="edgeStyle=orthogonalEdgeStyle;rounded=0;orthogonalLoop=1;jettySize=auto;html=1;entryX=0.5;entryY=0;entryDx=0;entryDy=0;endArrow=none;endFill=0;" edge="1" parent="1" source="yrKPJrua5AQL0j4_LsnH-9" target="yrKPJrua5AQL0j4_LsnH-29">
          <mxGeometry relative="1" as="geometry">
            <Array as="points">
              <mxPoint x="330" y="390" />
              <mxPoint x="200" y="390" />
            </Array>
          </mxGeometry>
        </mxCell>
        <mxCell id="yrKPJrua5AQL0j4_LsnH-39" style="edgeStyle=orthogonalEdgeStyle;rounded=0;orthogonalLoop=1;jettySize=auto;html=1;entryX=0.5;entryY=0;entryDx=0;entryDy=0;endArrow=none;endFill=0;" edge="1" parent="1" source="yrKPJrua5AQL0j4_LsnH-9" target="yrKPJrua5AQL0j4_LsnH-30">
          <mxGeometry relative="1" as="geometry" />
        </mxCell>
        <mxCell id="yrKPJrua5AQL0j4_LsnH-40" style="edgeStyle=orthogonalEdgeStyle;rounded=0;orthogonalLoop=1;jettySize=auto;html=1;endArrow=none;endFill=0;" edge="1" parent="1" source="yrKPJrua5AQL0j4_LsnH-9" target="yrKPJrua5AQL0j4_LsnH-31">
          <mxGeometry relative="1" as="geometry">
            <Array as="points">
              <mxPoint x="330" y="390" />
              <mxPoint x="460" y="390" />
            </Array>
          </mxGeometry>
        </mxCell>
        <mxCell id="yrKPJrua5AQL0j4_LsnH-9" value="Website" style="rounded=1;whiteSpace=wrap;html=1;" vertex="1" parent="1">
          <mxGeometry x="270" y="310" width="120" height="60" as="geometry" />
        </mxCell>
        <mxCell id="yrKPJrua5AQL0j4_LsnH-24" style="edgeStyle=orthogonalEdgeStyle;rounded=0;orthogonalLoop=1;jettySize=auto;html=1;entryX=0.5;entryY=0;entryDx=0;entryDy=0;endArrow=none;endFill=0;" edge="1" parent="1" source="yrKPJrua5AQL0j4_LsnH-10" target="yrKPJrua5AQL0j4_LsnH-21">
          <mxGeometry relative="1" as="geometry" />
        </mxCell>
        <mxCell id="yrKPJrua5AQL0j4_LsnH-25" style="edgeStyle=orthogonalEdgeStyle;rounded=0;orthogonalLoop=1;jettySize=auto;html=1;endArrow=none;endFill=0;" edge="1" parent="1" source="yrKPJrua5AQL0j4_LsnH-10" target="yrKPJrua5AQL0j4_LsnH-22">
          <mxGeometry relative="1" as="geometry" />
        </mxCell>
        <mxCell id="yrKPJrua5AQL0j4_LsnH-10" value="Data Storage" style="rounded=1;whiteSpace=wrap;html=1;" vertex="1" parent="1">
          <mxGeometry x="595" y="310" width="120" height="60" as="geometry" />
        </mxCell>
        <mxCell id="yrKPJrua5AQL0j4_LsnH-13" value="User input document" style="rounded=1;whiteSpace=wrap;html=1;" vertex="1" parent="1">
          <mxGeometry x="-380" y="410" width="120" height="60" as="geometry" />
        </mxCell>
        <mxCell id="yrKPJrua5AQL0j4_LsnH-14" value="Timetabling algorithm" style="rounded=1;whiteSpace=wrap;html=1;" vertex="1" parent="1">
          <mxGeometry x="-250" y="410" width="120" height="60" as="geometry" />
        </mxCell>
        <mxCell id="yrKPJrua5AQL0j4_LsnH-15" value="Validation" style="rounded=1;whiteSpace=wrap;html=1;" vertex="1" parent="1">
          <mxGeometry x="-120" y="410" width="120" height="60" as="geometry" />
        </mxCell>
        <mxCell id="yrKPJrua5AQL0j4_LsnH-16" value="Export to file" style="rounded=1;whiteSpace=wrap;html=1;" vertex="1" parent="1">
          <mxGeometry x="10" y="410" width="120" height="60" as="geometry" />
        </mxCell>
        <mxCell id="yrKPJrua5AQL0j4_LsnH-21" value="Login details" style="rounded=1;whiteSpace=wrap;html=1;" vertex="1" parent="1">
          <mxGeometry x="530" y="410" width="120" height="60" as="geometry" />
        </mxCell>
        <mxCell id="yrKPJrua5AQL0j4_LsnH-22" value="Timetable files" style="rounded=1;whiteSpace=wrap;html=1;" vertex="1" parent="1">
          <mxGeometry x="660" y="410" width="120" height="60" as="geometry" />
        </mxCell>
        <mxCell id="yrKPJrua5AQL0j4_LsnH-29" value="Login (admin and normal users)" style="rounded=1;whiteSpace=wrap;html=1;" vertex="1" parent="1">
          <mxGeometry x="140" y="410" width="120" height="60" as="geometry" />
        </mxCell>
        <mxCell id="yrKPJrua5AQL0j4_LsnH-30" value="Generation page (admin only)" style="rounded=1;whiteSpace=wrap;html=1;" vertex="1" parent="1">
          <mxGeometry x="270" y="410" width="120" height="60" as="geometry" />
        </mxCell>
        <mxCell id="yrKPJrua5AQL0j4_LsnH-31" value="Viewing page" style="rounded=1;whiteSpace=wrap;html=1;" vertex="1" parent="1">
          <mxGeometry x="400" y="410" width="120" height="60" as="geometry" />
        </mxCell>
        <mxCell id="yrKPJrua5AQL0j4_LsnH-32" value="Timetable file retrieval" style="rounded=1;whiteSpace=wrap;html=1;" vertex="1" parent="1">
          <mxGeometry x="790.5" y="410" width="120" height="60" as="geometry" />
        </mxCell>
        <mxCell id="yrKPJrua5AQL0j4_LsnH-33" value="Viewpoint filtering" style="rounded=1;whiteSpace=wrap;html=1;" vertex="1" parent="1">
          <mxGeometry x="920.5" y="410" width="120" height="60" as="geometry" />
        </mxCell>
        <mxCell id="yrKPJrua5AQL0j4_LsnH-34" value="Visual display" style="rounded=1;whiteSpace=wrap;html=1;" vertex="1" parent="1">
          <mxGeometry x="1050.5" y="410" width="120" height="60" as="geometry" />
        </mxCell>
      </root>
    </mxGraphModel>
  </diagram>
</mxfile>
